<svg version="1.2" baseProfile="tiny-ps" xmlns="http://www.w3.org/2000/svg" viewBox="0 0 609 317" width="609" height="317">
	<title>logo_kal-svg</title>
	<style>
		tspan { white-space:pre }
		.shp0 { fill: #11153a } 
		.shp1 { fill: #7dbb72 } 
		.shp2 { fill: #006347 } 
		.shp3 { fill: #064a33 } 
		.shp4 { fill: #be4545 } 
		.shp5 { fill: #ffffff } 
	</style>
	<g id="Layer">
		<g id="Layer">
			<path id="Layer" class="shp0" d="M510.72 137.45C510.72 136.97 508.37 134.2 507.83 134.14C505.9 133.96 504.7 135.89 503.01 136.79C499.88 138.42 495.72 139.86 492.11 139.86C490.91 139.86 490.36 141.61 490.36 142.57C490.36 144.14 491.2 144.86 492.71 144.86C495 144.86 496.69 143.72 498.37 143.29C498.19 144.31 497.22 146.18 496.8 146.9C492.34 154.37 487.83 162.38 485.36 170.69C485.3 170.93 485.18 171.17 485.18 171.47C485.18 172.85 489.09 175.81 490.24 175.81C490.84 175.81 491.32 175.45 491.62 174.97C491.92 174.49 491.92 173.95 491.98 173.4C492.28 171.05 493.12 168.76 494.09 166.6C497.64 158.53 501.68 150.7 506.68 143.42C507.35 142.45 510.72 138.11 510.72 137.45Z" />
			<path id="Layer" fill-rule="evenodd" class="shp0" d="M539.93 142.43C539.93 152.97 525.17 168.32 515.9 173.38C512.41 175.25 508.8 176.39 506.87 176.39C506.33 176.39 505.73 176.27 505.73 175.61C505.73 174.22 505.97 172.72 505.97 171.21C505.97 170.79 506.09 170.31 506.45 170.07C506.75 169.83 508.56 169.65 509.1 169.53C510.79 169.06 518.8 164.24 518.8 162.49C518.8 161.29 516.45 161.23 515.49 160.87C512.36 159.61 511.21 157.2 511.21 154.55C511.21 151.42 512.83 147.87 514.46 145.46C518.79 139.08 525.66 134.44 532.16 134.44C536.98 134.44 539.93 137.75 539.93 142.43ZM533.12 142.27C533.12 140.28 532.22 139.26 530.17 139.26C524.45 139.26 518.79 147.69 518.79 152.93C518.79 154.61 519.45 156 521.32 156C526.56 156 533.12 147.14 533.12 142.27Z" />
			<path id="Layer" class="shp0" d="M571.54 142.63C571.78 138.11 568.89 134.08 563.83 134.08C560.4 134.08 557.14 134.74 554.2 136.67C552.69 137.63 548.6 141.01 548.6 142.87C548.6 144.44 550.77 145.22 552.09 145.22C555.34 145.22 555.59 139.02 561.67 139.02C563.35 139.02 564.86 140.1 564.92 141.91C565.04 148.65 550.53 150.64 550.53 153.29C550.53 154.01 550.71 157.45 551.85 157.39C553.05 157.33 554.26 157.21 555.46 157.21C557.03 157.21 557.87 158.29 557.87 159.8C557.87 164.8 550.53 169.86 545.95 169.86C544.5 169.86 543.72 168.59 543.72 167.27C543.72 165.95 545.53 164.86 545.53 163.6C545.53 161.01 544.69 158.72 541.86 158.96C539.69 159.14 536.86 164.74 536.8 167.27C536.74 172.51 539.33 176.54 544.99 176.54C552.75 176.54 561.3 169.97 564.56 163.17C565.28 161.72 565.71 160.04 565.71 158.41C565.71 156.3 564.99 154.2 563.24 152.75C564.38 152.02 571.18 148.29 571.54 142.63Z" />
			<path id="Layer" class="shp0" d="M597.08 134.5C592.08 134.5 585.46 136.91 582.45 141.06C582.03 141.66 581.3 142.93 581.3 143.71C581.3 144.37 582.99 147.5 583.65 147.5C585.33 147.5 586.18 144.25 587.14 143.1C589.25 140.63 591.71 138.95 595.63 139.19C596.9 139.25 598.34 140.82 597.86 142.56C595.99 149.79 567.51 164.78 567.51 170.8C567.51 171.4 567.81 172.61 568.35 173.75C569.01 175.37 570.1 176.88 571.12 176.52C575.82 174.89 580.87 173.81 586.41 173.81C588.4 173.81 590.26 174.84 591.05 174.77C592.13 174.65 594.12 171.7 594.12 169.71C594.12 167.54 589.6 166.82 587.98 166.82C585.45 166.82 582.56 167.78 580.69 167.78C580.15 167.78 579.73 167.54 579.73 166.93C579.73 166.45 580.27 166.03 580.57 165.79C582.49 164.16 584.72 162.96 586.65 161.39C589.9 158.74 593.63 156.39 597.07 153.98C600.26 151.69 605.8 147.48 605.8 143.08C605.81 137.63 602.5 134.5 597.08 134.5Z" />
		</g>
		<g id="Layer">
			<path id="Layer" class="shp0" d="M29.37 150.01C24.2 144.38 22.15 140.41 22.15 137.49C22.15 136.5 22.42 135.63 22.81 134.84C24 132.65 26.32 131.79 28.71 131.79C29.97 131.79 31.23 132.06 32.35 132.45C35.53 133.58 38.58 136.63 38.11 139.47C37.85 141.39 35.73 142.98 34.47 141.66C34.4 141.53 34.34 141.73 34.21 141.79C34.01 142.05 33.81 142.39 33.81 142.78C33.74 143.58 33.94 144.83 35.67 145.69C36.27 145.96 36.86 146.09 37.53 146.09C40.58 146.09 43.96 143.24 45.08 140.19C45.41 139.26 45.61 138.27 45.61 137.28C45.61 132.57 41.77 127.61 34.35 126.22C32.89 125.95 31.57 125.82 30.24 125.82C23.88 125.82 19.04 128.8 16.39 133.5C15.4 135.22 14.93 137.28 14.93 139.46C14.93 144.29 17.31 149.99 22.15 155.1L25.2 158.28C27.72 161 30.37 164.51 30.37 167.69C30.37 168.55 30.17 169.41 29.71 170.21C28.45 172.4 25.21 173.52 21.82 173.52C19.97 173.52 18.11 173.19 16.45 172.53C12.74 171.07 10.09 168.09 10.55 165.04C10.88 162.59 13.46 160.8 15.19 161.33L15.25 161.33C15.32 161.26 15.38 161 15.19 160.47C14.86 159.48 13.66 158.09 11.54 158.02C8.03 157.82 3.59 160.14 2.66 165.51C1.67 170.94 6.5 176.57 14.32 178.36C16.11 178.75 17.96 178.96 19.75 178.96C27.83 178.96 35.05 175.05 37.64 169.95C38.5 168.29 38.9 166.7 38.9 165.18C38.9 161.4 36.52 157.69 31.94 152.79L29.37 150.01Z" />
			<path id="Layer" class="shp0" d="M55.13 147.03C56.92 147.03 59.5 144.91 60.89 142.26C61.49 141.2 61.75 140.14 61.75 139.35C61.75 138.16 61.15 137.43 60.09 137.43C58.3 137.43 55.72 139.62 54.33 142.27C53.73 143.33 53.47 144.32 53.47 145.12C53.47 146.24 54.07 147.03 55.13 147.03Z" />
			<path id="Layer" fill-rule="evenodd" class="shp0" d="M130.64 165.73C130.64 167.59 128.46 170.37 127.33 171.76C124.15 175.46 119.31 177.19 114.48 177.19C110.35 177.19 106.81 175.58 105.54 171.94C102.36 175.5 97.7 177.19 92.95 177.19C88.88 177.19 85.4 175.48 84.04 171.97C80.83 175.42 77.25 176.72 74.4 176.72C73.67 176.72 73.01 176.65 72.41 176.52C70.16 175.99 68.37 174.07 68.37 171.22C68.37 170.03 68.7 168.64 69.43 167.11L72.28 161.21C73.74 158.3 74.01 155.45 72.88 155.05C71.62 154.52 69.9 155.98 68.31 158.1C67.05 159.82 66.06 161.41 64.93 163.86L59.43 175.72C59.23 176.19 59.1 176.32 58.57 176.32L53.34 176.32C52.81 176.32 52.88 175.98 53.01 175.72L53.15 175.42C51.61 176.2 49.9 176.71 47.98 176.78C44.2 176.92 41.75 174.66 41.75 171.22C41.75 169.96 42.01 168.57 42.74 167.11L50.49 150.75C50.55 150.56 50.82 150.29 51.15 150.29L56.65 150.29C57.05 150.29 56.98 150.55 56.85 150.95L49.96 166.19C48.7 168.97 49.03 170.43 49.96 170.83C53.67 172.62 57.85 165 59.17 162.22C59.2 162.16 59.26 162.15 59.3 162.1L64.47 150.89C64.6 150.49 64.86 150.29 65.46 150.29L69.24 150.29C69.51 150.29 70.04 150.62 69.84 151.09L68.65 153.94C70.24 152.08 73.03 150.03 76.14 150.16C79.06 150.23 80.84 152.55 80.38 156.06C79.98 159.57 75.61 166.26 75.61 169.38C75.61 170.18 75.87 170.77 76.6 170.97C79.16 171.77 81.68 169.15 83.82 165.61C85.66 157.94 94.18 149.77 101.64 149.77C103.96 149.77 106.08 151.09 106.08 153.61C106.08 155.93 103.96 159.9 101.38 159.9C100.32 159.9 99.46 159.17 99.46 158.11C99.46 155.92 101.71 153.6 103.9 154C103.9 152.94 102.83 152.81 102.04 152.81C97.21 152.81 90.85 164.47 90.85 168.84C90.85 171.62 92.3 172.81 95.02 172.81C98 172.81 100.71 171.09 102.77 168.97C104.11 167.51 104.91 166.03 105.9 164.41C108.37 157.13 116.14 149.76 123.17 149.76C125.43 149.76 127.48 150.49 127.48 153.07C127.48 159.7 118.14 166.39 112.44 168.11L112.38 168.84C112.25 171.62 113.84 172.81 116.55 172.81C119.6 172.81 122.31 171.09 124.3 168.97C125.82 167.45 126.62 165.79 127.74 164C127.94 163.67 128.14 163.4 128.6 163.4C129.72 163.4 130.65 164.59 130.64 165.73ZM113.23 164.85C116.81 163.19 124.49 158.22 124.49 153.85C124.49 153.19 124.09 152.79 123.36 152.79C119.85 152.79 114.29 161.94 113.23 164.85Z" />
		</g>
		<path id="Layer" class="shp1" d="M432.05 158.06C432.05 227.1 376.08 283.07 307.04 283.07C238 283.07 182.03 227.1 182.03 158.06C182.03 89.02 238 33.05 307.04 33.05C376.08 33.05 432.05 89.02 432.05 158.06Z" />
		<path id="Layer" fill-rule="evenodd" class="shp2" d="M307.04 315.74C220.62 315.74 150.3 245.43 150.3 159C150.3 72.57 220.61 2.26 307.04 2.26C393.47 2.26 463.78 72.57 463.78 159C463.78 245.43 393.47 315.74 307.04 315.74ZM307.04 44.42C243.86 44.42 192.46 95.82 192.46 159.01C192.46 222.19 243.86 273.59 307.04 273.59C370.22 273.59 421.63 222.19 421.63 159.01C421.63 95.82 370.22 44.42 307.04 44.42Z" />
		<path id="Layer" fill-rule="evenodd" class="shp3" d="M307.04 317.49C219.65 317.49 148.55 246.39 148.55 159C148.55 71.6 219.65 0.5 307.04 0.5C394.43 0.5 465.54 71.61 465.54 159C465.54 246.39 394.43 317.49 307.04 317.49ZM307.04 4.02C221.58 4.02 152.06 73.54 152.06 159C152.06 244.45 221.58 313.98 307.04 313.98C392.5 313.98 462.02 244.46 462.02 159C462.02 73.54 392.5 4.02 307.04 4.02ZM307.04 275.34C242.89 275.34 190.7 223.15 190.7 159C190.7 94.85 242.89 42.66 307.04 42.66C371.19 42.66 423.38 94.85 423.38 159C423.38 223.15 371.19 275.34 307.04 275.34ZM307.04 46.17C244.83 46.17 194.21 96.78 194.21 159C194.21 221.21 244.82 271.83 307.04 271.83C369.26 271.83 419.87 221.22 419.87 159C419.87 96.79 369.26 46.17 307.04 46.17Z" />
		<path id="Layer" class="shp4" d="M438.81 117.39C416.39 115.41 401.3 108.29 390.54 103.99C390.54 103.99 351.53 88.42 308.13 88.25C291.14 88.18 257.86 90.49 223.92 103.99C213.05 108.32 198.05 115.41 175.65 117.39C163.26 118.48 157.13 117.59 150.09 116.64C147.17 126.68 144.55 140.53 144.3 157.1C144.02 175.82 147.18 191.29 150.3 202.04C151.57 201.98 159.76 201.87 162.35 201.97C165.04 202.07 167.92 202.47 175.56 203.46C198.43 206.43 213.82 212.84 224.08 216.54C227.41 217.74 265.51 231.18 307.05 231.21C348.81 231.24 387.11 217.73 390.41 216.54C400.65 212.84 416.04 206.43 438.93 203.46C451.35 201.85 456.97 201.81 463.89 202.03C466.77 191.87 469.62 177.94 469.82 161.28C470.05 142.78 466.95 127.45 463.89 116.66C462.1 117.07 453.5 118.68 438.81 117.39Z" />
		<path id="Layer" class="shp1" d="M184.51 107.18C188.4 97.87 195.11 84.73 206.6 71.36C218.47 57.54 230.9 48.76 239.7 43.51C239.01 42.34 238.31 41.17 237.61 39.99C228.52 45.44 215.63 54.59 203.32 69.01C191.04 83.4 184.05 97.54 180.09 107.35C181.58 107.29 183.04 107.24 184.51 107.18Z" />
		<path id="Layer" class="shp1" d="M431.41 107.18C427.52 97.87 420.81 84.73 409.32 71.36C397.45 57.54 385.02 48.76 376.22 43.51C376.91 42.34 377.61 41.17 378.31 39.99C387.4 45.44 400.29 54.59 412.6 69.01C424.88 83.4 431.87 97.54 435.83 107.35C434.34 107.29 432.88 107.24 431.41 107.18Z" />
		<path id="Layer" class="shp1" d="M185.65 212.22C184.18 212.2 182.72 212.18 181.25 212.16C190.5 233.83 205.14 252.66 223.48 266.96C224.26 265.87 225.03 264.78 225.81 263.69C218.96 258.34 210.42 250.6 202.19 239.96C194.3 229.75 189.09 219.97 185.65 212.22Z" />
		<path id="Layer" class="shp1" d="M430.18 212.22C431.65 212.2 433.11 212.18 434.58 212.16C425.33 233.83 410.69 252.66 392.35 266.96C391.57 265.87 390.8 264.78 390.02 263.69C396.87 258.34 405.41 250.6 413.64 239.96C421.53 229.75 426.74 219.97 430.18 212.22Z" />
	</g>
	<g id="Layer">
		<path id="Layer" class="shp5" d="M264.52 20.03L248.87 25.45L250.25 29.43L255.75 27.53L260.35 40.81L265 39.21L260.4 25.92L265.9 24.01L264.52 20.03Z" />
		<path id="Layer" fill-rule="evenodd" class="shp5" d="M289.65 28.23L292.49 33.08L287.64 33.9L284.96 29.19L280.53 29.94L281.38 34.96L276.53 35.78L273.49 17.76L286.91 15.49C288.88 15.16 289.86 16.25 290.24 18.49L291.27 24.62C291.61 26.67 291.17 27.77 289.65 28.23ZM286.41 24.87L285.6 20.08L279.06 21.19L279.87 25.98L286.41 24.87Z" />
		<path id="Layer" class="shp5" d="M311.27 28.26L304.49 28.23L304.56 14.23L299.67 14.21L299.6 28.89C299.59 31.37 301.27 32.5 303.32 32.51L312.37 32.55C314.79 32.56 316.12 30.77 316.13 28.83L316.2 14.3L311.34 14.28L311.27 28.26Z" />
		<path id="Layer" class="shp5" d="M338.98 17.46L329.73 15.8C327.68 15.44 326.17 16.05 325.77 18.32L325.21 21.45C324.86 23.39 325.24 24.31 326.86 25.17L335.66 29.17L335.29 31.25L328.62 30.06L329.05 27.62L324.26 26.76L323.75 29.61C323.31 32.07 324.77 33.48 326.79 33.84L335.62 35.42C338 35.85 339.59 34.64 339.98 32.43L340.46 29.77C340.85 27.58 340.55 26.73 338.87 25.86L330.06 21.91L330.4 20.03L337.07 21.22L336.69 23.38L341.45 24.23L341.83 22.13C342.29 19.57 341.8 17.97 338.98 17.46Z" />
		<path id="Layer" class="shp5" d="M351.49 20.51L350.06 24.47L355.53 26.44L350.77 39.66L355.4 41.33L360.16 28.11L365.63 30.08L367.06 26.11L351.49 20.51Z" />
	</g>
	<g id="Layer">
		<path id="Layer" fill-rule="evenodd" class="shp5" d="M413.81 172.97L417.29 173.08C416.48 178.76 415.67 190.58 414.86 197.42C412.89 197.3 407.79 197.18 400.95 197.07C391.48 196.91 385.08 196.87 376.14 196.95C370.7 197 363.95 197.1 356.16 197.34C352.28 197.34 344.78 196.95 335.98 196.95C327.96 196.95 322.91 197.21 315.67 197.34L315.67 193.33C320.36 192.83 322.39 192.44 323.03 191.34C323.56 190.43 323.2 189.39 323.04 188.81C322.09 185.49 320.98 181.29 319.6 176.13C317.08 174.53 314.06 172.86 310.55 171.36C304.62 168.83 299.17 167.58 294.85 166.95C293.31 171.92 291.01 178.53 289.68 185.7C288.64 191.26 289.8 192.55 300.54 193.33L300.41 197.34C296.14 197.34 291.62 196.95 285.54 196.95C282.33 196.95 277.81 197.19 273.54 197.29C273.53 197.3 273.53 197.3 273.53 197.3C271.68 197.34 269.83 197.38 267.98 197.43C260.44 197.62 252.98 197.89 245.59 198.22C243.62 193.82 232.03 173.99 227.39 165.65C225.89 163.33 225.08 161.82 223.8 161.94L223.8 172.26C223.8 182.11 224.14 187.21 224.26 190.11C224.49 193 225.65 193.12 233.07 193.7L232.84 197.29C229.24 197.29 221.71 196.94 213.71 196.94C206.75 196.94 199.1 197.29 195.86 197.29L195.98 193.7C203.17 193.12 204.68 192.89 204.91 190.11C205.14 187.91 205.49 182.35 205.49 173.19L205.49 147.11C205.49 138.42 205.37 133.43 205.26 130.88C205.15 127.98 203.64 127.75 196.8 127.29L197.04 123.7C199.94 123.7 207.24 124.16 214.31 124.16C221.73 124.16 229.15 123.7 232.05 123.7L232.28 127.29C225.67 127.87 224.63 127.99 224.4 130.77C224.17 133.55 223.82 138.89 223.82 147L223.82 159.27C232.62 154.4 246.42 137.36 250.13 130.64C251.06 128.9 250.6 128.44 249.09 128.21L242.25 127.4L243.29 123.69C247.12 123.69 251.64 124.15 256.97 124.04C262.07 124.04 267.17 123.8 270.41 123.69L270.64 127.28C264.38 127.51 260.67 128.55 258.12 130.64C254.07 134.12 246.76 142.82 239.46 150.7C245.84 162.41 259.87 184.78 264.04 189.88C264.45 190.39 265.28 191.44 266.72 192.22C268.39 193.12 270.2 193.3 271.85 193.18C272.04 193.16 272.25 193.14 272.43 193.12C272.81 193.08 273.19 193.03 273.54 192.96C273.58 192.95 273.62 192.94 273.66 192.94C275.69 192.51 277.2 191.77 277.39 191.67C278.34 191.19 279.05 190.68 279.54 190.29C280.67 189.12 281.61 187.48 282.59 185.06C286.61 174.71 300.32 134.48 303.29 124.91C304.32 121.42 304.84 119.35 305.23 116.37C307.43 116.56 310.71 116.59 314.53 115.66C318.27 114.75 321.12 113.26 322.97 112.11C335.79 155.39 345.35 187.08 346.37 189.45C347.02 190.96 348.14 191.79 348.14 191.79C348.93 192.37 349.93 192.69 351.28 192.82L351.55 192.85C353.17 193 354.88 193.11 356.68 193.17C358.99 193.24 361.17 193.22 363.2 193.13C363.96 193.1 365.21 192.92 365.96 192.01C366.33 191.57 366.51 190.96 366.56 190.12C366.91 186.52 367.14 179.22 367.14 170.06L367.14 146.07C367.14 136.68 367.14 132.85 366.91 130.42C366.8 128.68 366.1 127.98 363.9 127.75L358.11 127.29L358.34 123.7C361.12 123.7 370.97 124.16 377 124.16C383.14 124.16 388.82 123.7 395.08 123.7L395.43 127.29L389.52 127.87C387.09 127.99 386.28 128.8 386.16 130.77C385.93 135.06 385.47 141.9 385.47 151.29L385.47 171.11C385.47 180.27 385.59 187.69 385.82 190.82C385.94 192.21 386.63 193.14 390.11 193.14C399.85 193.14 403.79 192.44 406.92 188.73C410.16 185.03 412.13 179.92 413.81 172.97ZM315.38 165.41C312.84 154.63 310.29 143.85 307.75 133.06C306.75 137.99 305.75 142.91 304.75 147.84C304.15 146.1 303.55 144.35 302.95 142.61C300.83 149.01 298.71 155.4 296.59 161.79C299.84 161.95 303.62 162.36 307.75 163.27C310.57 163.88 313.11 164.63 315.38 165.41Z" />
		<path id="Layer" fill-rule="evenodd" class="shp5" d="M408.73 130.46L408.73 125.2L407.72 124.62L407.72 124.48L410.39 124.48C412.44 124.48 413.45 124.94 413.45 126.24C413.45 127.11 412.77 127.76 411.87 128.08L413.81 130.46L413.88 130.49L414.71 130.49L414.71 131.14L412.87 131.14L410.57 128.26L409.99 128.26L409.99 130.46L410.03 130.49L410.97 130.49L410.97 131.14L407.77 131.14L407.77 130.49L408.67 130.49L408.74 130.46L408.73 130.46ZM410 127.62L410.47 127.62C411.51 127.62 412.12 127.22 412.12 126.25C412.12 125.49 411.55 125.13 410.65 125.13L410 125.13L410 127.62Z" />
		<path id="Layer" fill-rule="evenodd" class="shp5" d="M403.73 128.08C403.73 124.12 407.05 120.88 411.08 120.88C415.11 120.88 418.39 124.12 418.39 128.08C418.39 132.04 415.11 135.32 411.08 135.32C407.05 135.32 403.73 132.04 403.73 128.08ZM405.21 128.08C405.21 131.32 407.84 133.95 411.08 133.95C414.28 133.95 416.91 131.32 416.91 128.08C416.91 124.87 414.28 122.24 411.08 122.24C407.84 122.24 405.21 124.87 405.21 128.08Z" />
	</g>
	<g id="Layer">
		<path id="Layer" fill-rule="evenodd" class="shp5" d="M299.04 284.64L302.34 303.39L297.37 302.84L296.83 299.5L290.27 298.78L288.99 301.92L284.02 301.37L291.39 283.8L299.04 284.64ZM296.19 295.48L294.98 288.19L294.56 288.14L291.8 294.99L296.19 295.48Z" />
		<path id="Layer" class="shp5" d="M316.43 298.67L315.29 284.72L310.36 285.12L311.85 303.33L326.69 302.12L326.34 297.86L316.43 298.67Z" />
		<path id="Layer" class="shp5" d="M331.98 282.45L336.77 281.35L340.87 299.16L336.07 300.26L331.98 282.45Z" />
		<path id="Layer" class="shp5" d="M358.44 273.91L343.01 279.9L344.53 283.83L349.96 281.73L355.05 294.83L359.63 293.04L354.54 279.94L359.97 277.84L358.44 273.91Z" />
		<path id="Layer" class="shp5" d="M378.58 275.08L378.33 262.06L373.91 264.84L374.39 272.84L374.34 272.87L367.38 268.94L362.98 271.71L374.43 277.73L378.2 283.72L382.37 281.1L378.58 275.08Z" />
		<path id="Layer" fill-rule="evenodd" class="shp5" d="M256.73 277.95L251.67 287.07C250.73 288.77 248.63 289.66 246.49 288.47L245.7 288.04L244.72 291.77L240.35 289.34L241.43 285.66L238.16 283.84C236.39 282.86 235.44 281.04 236.64 278.88L242.14 268.98C243.23 267.02 244.96 266.73 246.66 267.67L255.9 272.8C257.96 273.94 257.95 275.77 256.73 277.95ZM252.36 275.75L245.92 272.18L241.21 280.66L247.65 284.23L252.36 275.75Z" />
		<path id="Layer" class="shp5" d="M271.83 293.87L265.37 291.83L269.58 278.48L264.91 277.01L260.51 291C259.77 293.36 261.04 294.94 262.99 295.56L271.62 298.29C273.92 299.02 275.73 297.7 276.31 295.85L280.69 281.99L276.05 280.53L271.83 293.87Z" />
	</g>
</svg>