<svg id="Calque_1" data-name="Calque 1" width="288.14" height="139.47" xmlns="http://www.w3.org/2000/svg" viewBox="0 0 288.14 139.47"><defs><style>.cls-1{fill:#81cff4;}.cls-2{fill:#ffdc00;}.cls-3{fill:#7dbe74;}.cls-4{fill:#e95296;}.cls-5{fill:#ee771a;}.cls-6{fill:#1d1d1b;}.cls-7{fill:#ea5198;}</style></defs><path class="cls-1" d="M224.91,10.88a48.25,48.25,0,0,0-43.52,27.44L198.56,99.6a48.27,48.27,0,1,0,26.35-88.72Z" transform="translate(-1 -0.48)"/><path class="cls-2" d="M176.61,59.16a48,48,0,0,1,4.78-20.84L170.79.48l-66.35,56.7V89.31l98.23,25L198.56,99.6A48.23,48.23,0,0,1,176.61,59.16Z" transform="translate(-1 -0.48)"/><path class="cls-3" d="M176.61,59.16A48.23,48.23,0,0,0,198.56,99.6L181.39,38.32A48,48,0,0,0,176.61,59.16Z" transform="translate(-1 -0.48)"/><polygon class="cls-4" points="103.44 56.7 103.44 21.19 22.05 21.19 22.05 102.58 103.44 102.58 103.44 88.83 74.45 81.47 103.44 56.7"/><polygon class="cls-5" points="74.45 81.47 103.44 88.83 103.44 56.7 74.45 81.47"/><path class="cls-6" d="M16.54,68.43H8.37V82.84a3.69,3.69,0,0,1-7.37,0V43.65A3.64,3.64,0,0,1,4.65,40H16.54a14.22,14.22,0,1,1,0,28.43M8.37,61.06h8.17a6.84,6.84,0,1,0,0-13.68H8.37Z" transform="translate(-1 -0.48)"/><path class="cls-6" d="M39.72,82.84V43.66A3.6,3.6,0,0,1,43.38,40H65.09a3.69,3.69,0,0,1,3.66,3.65,3.75,3.75,0,0,1-3.66,3.72h-18V59.53H62.57a3.69,3.69,0,0,1,0,7.37H47.09V79.12h18a3.69,3.69,0,0,1,0,7.38H43.57c-.13,0-.13-.07-.13-.07l-.06.07a3.65,3.65,0,0,1-3.66-3.66" transform="translate(-1 -0.48)"/><path class="cls-6" d="M79.11,82.84V43.66A3.59,3.59,0,0,1,82.76,40H90.6a23.24,23.24,0,0,1,0,46.48H82.76a3.64,3.64,0,0,1-3.65-3.65m7.37-3.72H90.6a15.87,15.87,0,0,0,0-31.74H86.48Z" transform="translate(-1 -0.48)"/><path class="cls-6" d="M124,43.66A3.61,3.61,0,0,1,127.67,40a3.7,3.7,0,0,1,3.71,3.66V82.84a3.7,3.7,0,0,1-3.71,3.66A3.61,3.61,0,0,1,124,82.84Z" transform="translate(-1 -0.48)"/><path class="cls-6" d="M167.52,75.54H151.38l-3.26,8.63a3.7,3.7,0,0,1-6.9-2.66L155.89,42.4a3.72,3.72,0,0,1,3.53-2.33,3.66,3.66,0,0,1,3.52,2.33l14.67,39.11a3.75,3.75,0,0,1-2.19,4.78,3.39,3.39,0,0,1-1.26.21,3.58,3.58,0,0,1-3.39-2.33Zm-2.73-7.31L159.42,54,154,68.23Z" transform="translate(-1 -0.48)"/><path class="cls-6" d="M186.72,82.84V44a3.65,3.65,0,1,1,7.3,0V63.05l21.52-21.58a3.61,3.61,0,0,1,5.18,0,3.74,3.74,0,0,1,0,5.18L206.11,61.19l14.75,19.33a3.54,3.54,0,0,1-.54,5.11,3.36,3.36,0,0,1-2.32.87,3.61,3.61,0,0,1-2.72-1.33l-14.35-18.8-6.91,7v9.43a3.65,3.65,0,1,1-7.3,0" transform="translate(-1 -0.48)"/><path class="cls-6" d="M234.68,43.66A3.6,3.6,0,0,1,238.33,40a3.71,3.71,0,0,1,3.72,3.66V82.84a3.71,3.71,0,0,1-3.72,3.66,3.6,3.6,0,0,1-3.65-3.66Z" transform="translate(-1 -0.48)"/><path class="cls-6" d="M254.47,82.84V43.66A3.59,3.59,0,0,1,258.12,40H266a23.24,23.24,0,0,1,0,46.48h-7.84a3.64,3.64,0,0,1-3.65-3.65m7.37-3.72H266a15.87,15.87,0,0,0,0-31.74h-4.12Z" transform="translate(-1 -0.48)"/><path class="cls-7" d="M9.62,116.54a1.37,1.37,0,0,1,1,.88,4,4,0,0,1,.2,1.72,10.6,10.6,0,0,1-.45,2.26,19.92,19.92,0,0,1-1,2.56A26.94,26.94,0,0,1,8,126.54a22.36,22.36,0,0,1-1.62,2.34,1.79,1.79,0,0,0,.45,1,1,1,0,0,0,.71.32,1.72,1.72,0,0,0,.86-.17,4,4,0,0,0,.9-.56,6.56,6.56,0,0,0,1.08-1.09,5.82,5.82,0,0,0,.77-1.24q0-.19.33-.27a1.3,1.3,0,0,1,.59,0,1.38,1.38,0,0,1,.54.27.64.64,0,0,1,.2.57,8.92,8.92,0,0,1-1,1.78,7.28,7.28,0,0,1-1.25,1.38A5.4,5.4,0,0,1,8.41,132a3.13,3.13,0,0,1-1.92,0,3.2,3.2,0,0,1-1.39-1,5.26,5.26,0,0,1-.85-1.78A8.81,8.81,0,0,1,4,126.93c0-.49,0-1,0-1.56s.08-1.1.15-1.66.17-1.12.27-1.67a13.55,13.55,0,0,1,.42-1.61,10.43,10.43,0,0,1,.74-1.8,5,5,0,0,1,1-1.36,3.1,3.1,0,0,1,3-.73Zm-1.17,2.08a.6.6,0,0,0-.46.24,3.33,3.33,0,0,0-.46.68,8.41,8.41,0,0,0-.44,1c-.14.4-.28.8-.4,1.22s-.25.88-.35,1.32-.19.86-.27,1.25-.14.73-.18,1a5.8,5.8,0,0,0-.06.69c.16-.23.34-.5.53-.81s.37-.65.56-1,.37-.73.54-1.11.33-.77.48-1.14.33-.87.46-1.28a7.18,7.18,0,0,0,.27-1.06,2.23,2.23,0,0,0,0-.75C8.68,118.74,8.59,118.63,8.45,118.62Z" transform="translate(-1 -0.48)"/><path class="cls-7" d="M17.21,123.54a7.28,7.28,0,0,1-.33,1.81A5.17,5.17,0,0,1,16,127a4.26,4.26,0,0,1-1.36,1.17,3.28,3.28,0,0,1-1.83.37,6.38,6.38,0,0,0,.12,1.08,2.6,2.6,0,0,0,.35.9A1.34,1.34,0,0,0,14,131a1.66,1.66,0,0,0,1,0,3.8,3.8,0,0,0,1.21-.6,5.93,5.93,0,0,0,1-1,6.07,6.07,0,0,0,.78-1.14,5.7,5.7,0,0,0,.46-1.19.48.48,0,0,1,.34-.38,1.11,1.11,0,0,1,.57,0,1.14,1.14,0,0,1,.51.32.54.54,0,0,1,.13.51q-.39,1-.78,1.86a8.57,8.57,0,0,1-.86,1.44,5.6,5.6,0,0,1-1.06,1.06,5.29,5.29,0,0,1-1.38.72,5.19,5.19,0,0,1-2,.33,3.09,3.09,0,0,1-1.57-.48,2.89,2.89,0,0,1-1.06-1.22,4.83,4.83,0,0,1-.44-1.94c0-.36,0-.79,0-1.31s0-1,.1-1.6a15.28,15.28,0,0,1,.29-1.71,8.11,8.11,0,0,1,.54-1.62,5.27,5.27,0,0,1,.86-1.32A2.91,2.91,0,0,1,14,121a2.82,2.82,0,0,1,1.21-.16,2,2,0,0,1,1,.38,2.16,2.16,0,0,1,.73.91A3.15,3.15,0,0,1,17.21,123.54Zm-2.28-.47a.46.46,0,0,0-.5,0,1.49,1.49,0,0,0-.46.45,3.75,3.75,0,0,0-.38.75c-.1.29-.19.59-.27.89s-.12.6-.16.88a2.61,2.61,0,0,0,0,.67,2.34,2.34,0,0,0,1.32-.69,2.94,2.94,0,0,0,.68-1.12,2.62,2.62,0,0,0,.13-1.12A.87.87,0,0,0,14.93,123.07Z" transform="translate(-1 -0.48)"/><path class="cls-7" d="M23.77,132a.64.64,0,0,1-.52.34,1.34,1.34,0,0,1-.65-.11,1.45,1.45,0,0,1-.53-.37.4.4,0,0,1-.13-.45l.33-.8q.19-.48.48-1.41t.66-2.46q.38-1.53.84-3.9a1.2,1.2,0,0,1,.41-.83,1,1,0,0,1,.73-.21,1.16,1.16,0,0,1,.45.12.93.93,0,0,1,.37.28,1.17,1.17,0,0,1,.23.46,1.14,1.14,0,0,1,0,.58,4.82,4.82,0,0,0,.64.64,3.28,3.28,0,0,0,.67.45,5.24,5.24,0,0,0,.76.31c.27.09.58.19.93.28a1.3,1.3,0,0,1,.47.47.94.94,0,0,1,.07.5,2.29,2.29,0,0,1-.16.56c-.09.2-.16.41-.24.64s-.08.33-.12.58a8.47,8.47,0,0,0-.12.84c0,.31-.05.62-.06.95a5.17,5.17,0,0,0,0,.89,2.49,2.49,0,0,0,.17.69.47.47,0,0,0,.37.31c.5.1,1-.2,1.42-.9a12.47,12.47,0,0,0,1.29-3.43.79.79,0,0,1,.38-.58,1,1,0,0,1,.62-.09,1.07,1.07,0,0,1,.54.27.52.52,0,0,1,.15.53c-.07.44-.18.93-.32,1.48a12.36,12.36,0,0,1-.57,1.61,9,9,0,0,1-.84,1.52A4.39,4.39,0,0,1,31.37,133a2.6,2.6,0,0,1-1.06.44,2.5,2.5,0,0,1-2.09-.6,2.14,2.14,0,0,1-.64-1,6.93,6.93,0,0,1-.35-2.56,14.72,14.72,0,0,1,.4-2.61l-.92-.39a3.57,3.57,0,0,1-.87-.47c-.42,1.32-.75,2.37-1,3.16s-.43,1.39-.58,1.82-.25.74-.31.91A2.05,2.05,0,0,1,23.77,132Z" transform="translate(-1 -0.48)"/><path class="cls-7" d="M38.65,123.54a6.83,6.83,0,0,1-.32,1.81,5.61,5.61,0,0,1-.85,1.65,4.4,4.4,0,0,1-1.37,1.17,3.25,3.25,0,0,1-1.83.37,5.5,5.5,0,0,0,.13,1.08,2.6,2.6,0,0,0,.35.9,1.26,1.26,0,0,0,.66.52,1.66,1.66,0,0,0,1,0,3.91,3.91,0,0,0,1.21-.6,6.3,6.3,0,0,0,1-1,6.52,6.52,0,0,0,.77-1.14,5.19,5.19,0,0,0,.46-1.19.49.49,0,0,1,.35-.38,1.11,1.11,0,0,1,.57,0,1.16,1.16,0,0,1,.5.32.54.54,0,0,1,.14.51c-.27.7-.53,1.32-.79,1.86a8,8,0,0,1-.86,1.44,5.28,5.28,0,0,1-1,1.06,5.52,5.52,0,0,1-1.39.72,5.16,5.16,0,0,1-2,.33,3.12,3.12,0,0,1-1.57-.48,2.87,2.87,0,0,1-1.05-1.22,5,5,0,0,1-.45-1.94c0-.36,0-.79,0-1.31a16.71,16.71,0,0,1,.38-3.31,8.81,8.81,0,0,1,.55-1.62,5,5,0,0,1,.86-1.32A2.94,2.94,0,0,1,35.4,121a2.84,2.84,0,0,1,1.21-.16,2.06,2.06,0,0,1,1.06.38,2.16,2.16,0,0,1,.73.91A3.29,3.29,0,0,1,38.65,123.54Zm-2.27-.47a.46.46,0,0,0-.5,0,1.39,1.39,0,0,0-.46.45,3.29,3.29,0,0,0-.38.75,7,7,0,0,0-.27.89,7.84,7.84,0,0,0-.16.88,2.22,2.22,0,0,0,0,.67,2.41,2.41,0,0,0,1.32-.69,2.91,2.91,0,0,0,.67-1.12,2.62,2.62,0,0,0,.13-1.12A.83.83,0,0,0,36.38,123.07Z" transform="translate(-1 -0.48)"/><path class="cls-7" d="M40.68,117.09a1.12,1.12,0,0,1,.64-.58,1.15,1.15,0,0,1,.73,0,1.07,1.07,0,0,1,.56.4.74.74,0,0,1,.11.67l-1.12,12a5.64,5.64,0,0,0,1.51-.31,8.46,8.46,0,0,0,1.43-.67,10,10,0,0,0,1.31-.92,14.82,14.82,0,0,0,1.17-1,.39.39,0,0,1,.51.11,1.6,1.6,0,0,1,.33.65,1.94,1.94,0,0,1,0,.8.82.82,0,0,1-.35.6l-.85.64c-.31.23-.63.45-.95.66a9.74,9.74,0,0,1-.93.57A3.75,3.75,0,0,1,44,131a4.23,4.23,0,0,1,.85,1.51,7.82,7.82,0,0,1,.37,2,8.93,8.93,0,0,1-.09,2.07,6.38,6.38,0,0,1-.59,1.82,3.38,3.38,0,0,1-1.09,1.24,2.17,2.17,0,0,1-1.59.32,2.24,2.24,0,0,1-1.4-.67,3.87,3.87,0,0,1-.82-1.36,7.36,7.36,0,0,1-.38-1.79,18.34,18.34,0,0,1-.07-1.95c0-.65,0-1.26.08-1.84s.07-1.08.08-1.48c0-.22,0-.66.08-1.3s.1-1.39.17-2.25.14-1.81.23-2.81.18-2,.27-2.9.18-1.81.27-2.61S40.59,117.54,40.68,117.09ZM42,137.57a1,1,0,0,0,.82-.44,3,3,0,0,0,.48-1,4.47,4.47,0,0,0,.11-1.34,4.63,4.63,0,0,0-.25-1.37,3.16,3.16,0,0,0-.62-1.09,1.51,1.51,0,0,0-1-.53c0,.2-.06.49-.1.86s-.08.78-.11,1.21,0,.88,0,1.32a9.09,9.09,0,0,0,0,1.21,3.12,3.12,0,0,0,.22.89A.48.48,0,0,0,42,137.57Z" transform="translate(-1 -0.48)"/><path class="cls-7" d="M51.64,116.54a1.39,1.39,0,0,1,1,.88,4,4,0,0,1,.19,1.72,9.49,9.49,0,0,1-.45,2.26,19.92,19.92,0,0,1-1,2.56A29.25,29.25,0,0,1,50,126.54a22.41,22.41,0,0,1-1.63,2.34,2,2,0,0,0,.45,1,1.06,1.06,0,0,0,.72.32,1.68,1.68,0,0,0,.85-.17,4.07,4.07,0,0,0,.91-.56,6.92,6.92,0,0,0,1.07-1.09,5.82,5.82,0,0,0,.77-1.24.43.43,0,0,1,.33-.27,1.3,1.3,0,0,1,.59,0,1.25,1.25,0,0,1,.54.27.61.61,0,0,1,.2.57,8.89,8.89,0,0,1-1,1.78,7,7,0,0,1-1.26,1.38A5.33,5.33,0,0,1,50.43,132a2.93,2.93,0,0,1-3.3-1,4.91,4.91,0,0,1-.85-1.78,8.4,8.4,0,0,1-.29-2.29c0-.49,0-1,0-1.56s.08-1.1.16-1.66.16-1.12.27-1.67a13.54,13.54,0,0,1,.41-1.61,11.29,11.29,0,0,1,.74-1.8,5,5,0,0,1,1-1.36,3.31,3.31,0,0,1,1.34-.75A3.27,3.27,0,0,1,51.64,116.54Zm-1.17,2.08a.57.57,0,0,0-.45.24,3,3,0,0,0-.46.68,8.35,8.35,0,0,0-.45,1c-.14.4-.27.8-.39,1.22s-.25.88-.36,1.32-.19.86-.27,1.25-.14.73-.18,1a5.8,5.8,0,0,0-.06.69c.17-.23.34-.5.53-.81s.37-.65.56-1,.37-.73.54-1.11.34-.77.48-1.14.34-.87.46-1.28a7.18,7.18,0,0,0,.27-1.06,2.23,2.23,0,0,0,0-.75C50.7,118.74,50.61,118.63,50.47,118.62Z" transform="translate(-1 -0.48)"/><path class="cls-7" d="M59.23,123.54a6.47,6.47,0,0,1-.33,1.81,5.36,5.36,0,0,1-.84,1.65,4.4,4.4,0,0,1-1.37,1.17,3.27,3.27,0,0,1-1.83.37,6.38,6.38,0,0,0,.12,1.08,2.61,2.61,0,0,0,.36.9A1.26,1.26,0,0,0,56,131a1.63,1.63,0,0,0,1,0,3.7,3.7,0,0,0,1.21-.6,5.59,5.59,0,0,0,1-1,6.07,6.07,0,0,0,.78-1.14,5.7,5.7,0,0,0,.46-1.19.48.48,0,0,1,.34-.38,1.11,1.11,0,0,1,.57,0,1.14,1.14,0,0,1,.51.32.51.51,0,0,1,.13.51q-.39,1-.78,1.86a8.57,8.57,0,0,1-.86,1.44A5,5,0,0,1,58,132.66a5.19,5.19,0,0,1-2,.33,3.12,3.12,0,0,1-1.57-.48,2.89,2.89,0,0,1-1.06-1.22,5,5,0,0,1-.44-1.94c0-.36,0-.79,0-1.31s0-1,.1-1.6a15.28,15.28,0,0,1,.29-1.71,8.8,8.8,0,0,1,.54-1.62,5.27,5.27,0,0,1,.86-1.32A3,3,0,0,1,56,121a2.84,2.84,0,0,1,1.21-.16,2.06,2.06,0,0,1,1.06.38,2.23,2.23,0,0,1,.73.91A3.29,3.29,0,0,1,59.23,123.54ZM57,123.07a.44.44,0,0,0-.49,0,1.31,1.31,0,0,0-.46.45,3.29,3.29,0,0,0-.38.75,7,7,0,0,0-.27.89,8,8,0,0,0-.17.88,2.54,2.54,0,0,0,0,.67,2.34,2.34,0,0,0,1.31-.69,2.82,2.82,0,0,0,.68-1.12,2.62,2.62,0,0,0,.13-1.12A.84.84,0,0,0,57,123.07Z" transform="translate(-1 -0.48)"/><path class="cls-7" d="M59.66,122.27a.87.87,0,0,1,.35-.71,1,1,0,0,1,.69-.2,1,1,0,0,1,.64.3.85.85,0,0,1,.2.77,3.56,3.56,0,0,0,0,.6,7.05,7.05,0,0,0,.06.86,7.75,7.75,0,0,0,.17,1,5.66,5.66,0,0,0,.32,1,4.76,4.76,0,0,0,.53,1,2.4,2.4,0,0,0,.75.74l3.7-6.12a.85.85,0,0,1,.7-.44,1,1,0,0,1,.71.26,1.23,1.23,0,0,1,.4.72,1.18,1.18,0,0,1-.25.92l-3.8,5.87a4.23,4.23,0,0,0,1.38.83,2.46,2.46,0,0,0,1.31.09A2.6,2.6,0,0,0,69,129a5,5,0,0,0,1.07-2,.44.44,0,0,1,.28-.38.74.74,0,0,1,.51,0,1.06,1.06,0,0,1,.49.36,1,1,0,0,1,.22.69,6.94,6.94,0,0,1-1.46,2.61,4.3,4.3,0,0,1-2,1.3,4.38,4.38,0,0,1-2,0,6.07,6.07,0,0,1-2.18-1l-1.11,1.92a.87.87,0,0,1-.71.48,1.46,1.46,0,0,1-.82-.19,1.42,1.42,0,0,1-.56-.58.57.57,0,0,1,.07-.67l1.45-2.22A6.56,6.56,0,0,1,61,128a7.88,7.88,0,0,1-.74-1.52,9.4,9.4,0,0,1-.5-2.27A16.1,16.1,0,0,1,59.66,122.27Z" transform="translate(-1 -0.48)"/><path class="cls-7" d="M75.78,123.54a6.85,6.85,0,0,1-.33,1.81A5.17,5.17,0,0,1,74.6,127a4.26,4.26,0,0,1-1.36,1.17,3.28,3.28,0,0,1-1.83.37,6.38,6.38,0,0,0,.12,1.08,2.61,2.61,0,0,0,.36.9,1.28,1.28,0,0,0,.65.52,1.66,1.66,0,0,0,1,0,3.8,3.8,0,0,0,1.21-.6,5.59,5.59,0,0,0,1-1,6.07,6.07,0,0,0,.78-1.14,5.7,5.7,0,0,0,.46-1.19.48.48,0,0,1,.34-.38,1.11,1.11,0,0,1,.57,0,1.14,1.14,0,0,1,.51.32.51.51,0,0,1,.13.51q-.39,1-.78,1.86a8.57,8.57,0,0,1-.86,1.44,5,5,0,0,1-2.44,1.78,5.19,5.19,0,0,1-2,.33,3.09,3.09,0,0,1-1.57-.48A2.89,2.89,0,0,1,70,131.29a5,5,0,0,1-.44-1.94c0-.36,0-.79,0-1.31s0-1,.1-1.6a15.28,15.28,0,0,1,.29-1.71,8.11,8.11,0,0,1,.54-1.62,5.27,5.27,0,0,1,.86-1.32,2.91,2.91,0,0,1,1.26-.82,2.84,2.84,0,0,1,1.21-.16,2,2,0,0,1,1.05.38,2.18,2.18,0,0,1,.74.91A3.29,3.29,0,0,1,75.78,123.54Zm-2.28-.47a.44.44,0,0,0-.49,0,1.41,1.41,0,0,0-.47.45,3.28,3.28,0,0,0-.37.75,9.18,9.18,0,0,0-.28.89c-.07.31-.12.6-.16.88a3.17,3.17,0,0,0,0,.67A2.34,2.34,0,0,0,73,126a2.94,2.94,0,0,0,.68-1.12,2.62,2.62,0,0,0,.13-1.12A.87.87,0,0,0,73.5,123.07Z" transform="translate(-1 -0.48)"/><path class="cls-7" d="M82.43,117.46a1.2,1.2,0,0,1,.42-.83,1.17,1.17,0,0,1,.71-.22,1.13,1.13,0,0,1,.66.24.72.72,0,0,1,.3.58q0,.27,0,.93c0,.44,0,1,0,1.58s0,1.29,0,2,0,1.47,0,2.24v2.25c0,.75,0,1.43,0,2.06s0,1.19,0,1.66,0,.81,0,1a1,1,0,0,1-.28.79,1.18,1.18,0,0,1-.68.37A1,1,0,0,1,83,132a1.16,1.16,0,0,1-.46-.8,4.91,4.91,0,0,1,0-.71c0-.38,0-.87,0-1.45s0-1.24,0-2,0-1.48,0-2.26v-2.33c0-.78,0-1.5,0-2.16s0-1.24,0-1.74S82.43,117.71,82.43,117.46Z" transform="translate(-1 -0.48)"/><path class="cls-7" d="M90.38,116.44a2.78,2.78,0,0,1,1.89.66,5.51,5.51,0,0,1,1.41,1.83,10.23,10.23,0,0,1,.88,2.57,15.94,15.94,0,0,1,.32,2.94,14.27,14.27,0,0,1-.28,2.93,8.49,8.49,0,0,1-.93,2.51,4.8,4.8,0,0,1-1.58,1.7,3.61,3.61,0,0,1-2.29.54,3.69,3.69,0,0,1-2.17-.82,5,5,0,0,1-1.4-1.84,8.73,8.73,0,0,1-.69-2.51,13.45,13.45,0,0,1,0-2.84,14.91,14.91,0,0,1,.52-2.82,11,11,0,0,1,1-2.46,6,6,0,0,1,1.47-1.73A3.06,3.06,0,0,1,90.38,116.44ZM92,120.3a2.13,2.13,0,0,0-1-1.15,1.37,1.37,0,0,0-1.12,0,2.47,2.47,0,0,0-1,.85,4.63,4.63,0,0,0-.75,1.47,12.76,12.76,0,0,0-.4,1.79,12.26,12.26,0,0,0-.15,1.9,11.87,11.87,0,0,0,.11,1.82,5.43,5.43,0,0,0,.44,1.52,2.45,2.45,0,0,0,.87,1.09,1.75,1.75,0,0,0,1.11.28,2.06,2.06,0,0,0,1.1-.48,3.07,3.07,0,0,0,.86-1.16,7.12,7.12,0,0,0,.53-1.84,12.38,12.38,0,0,0,.16-2.12,11.27,11.27,0,0,0-.2-2.11A7.57,7.57,0,0,0,92,120.3Z" transform="translate(-1 -0.48)"/><path class="cls-7" d="M100.57,116.44a2.78,2.78,0,0,1,1.89.66,5.51,5.51,0,0,1,1.41,1.83,10.23,10.23,0,0,1,.88,2.57,15.12,15.12,0,0,1,.31,2.94,13,13,0,0,1-.28,2.93,8.21,8.21,0,0,1-.92,2.51,4.8,4.8,0,0,1-1.58,1.7,3.61,3.61,0,0,1-2.29.54,3.69,3.69,0,0,1-2.17-.82,5,5,0,0,1-1.4-1.84,8.73,8.73,0,0,1-.69-2.51,13.45,13.45,0,0,1,0-2.84,14.91,14.91,0,0,1,.52-2.82,11,11,0,0,1,1-2.46,6,6,0,0,1,1.47-1.73A3.06,3.06,0,0,1,100.57,116.44Zm1.62,3.86a2.17,2.17,0,0,0-1-1.15,1.37,1.37,0,0,0-1.12,0,2.47,2.47,0,0,0-1,.85,4.63,4.63,0,0,0-.75,1.47,12.76,12.76,0,0,0-.4,1.79,12.26,12.26,0,0,0-.15,1.9,11.87,11.87,0,0,0,.11,1.82,5.43,5.43,0,0,0,.44,1.52,2.45,2.45,0,0,0,.87,1.09,1.75,1.75,0,0,0,1.11.28,2.06,2.06,0,0,0,1.1-.48,3.07,3.07,0,0,0,.86-1.16,7.54,7.54,0,0,0,.53-1.84,12.38,12.38,0,0,0,.16-2.12,11.27,11.27,0,0,0-.2-2.11A7.57,7.57,0,0,0,102.19,120.3Z" transform="translate(-1 -0.48)"/><path class="cls-7" d="M109,117a2.22,2.22,0,0,1,1.56.35,3.18,3.18,0,0,1,1,1.23,4.75,4.75,0,0,1,.45,1.72,4.89,4.89,0,0,1-.16,1.8,3.53,3.53,0,0,1-.84,1.48,2.56,2.56,0,0,1-1.55.77,2.7,2.7,0,0,1-1.85-.28,2.86,2.86,0,0,1-1.14-1.22,4.21,4.21,0,0,1-.43-1.74,4.88,4.88,0,0,1,.28-1.83,4,4,0,0,1,1-1.51A2.83,2.83,0,0,1,109,117Zm7,.06a.74.74,0,0,1,.64-.23,1.54,1.54,0,0,1,.67.24,1.39,1.39,0,0,1,.45.49.48.48,0,0,1,0,.53l-7.93,14.07a1.19,1.19,0,0,1-.67.16,1.3,1.3,0,0,1-.65-.19,1.24,1.24,0,0,1-.45-.46A.89.89,0,0,1,108,131Zm-6.79,5.31a1,1,0,0,0,.63-.35,1.57,1.57,0,0,0,.31-.68,2.61,2.61,0,0,0,0-.84,2.48,2.48,0,0,0-.21-.8,1.49,1.49,0,0,0-.42-.55.65.65,0,0,0-.59-.11.9.9,0,0,0-.48.36,2,2,0,0,0-.32.66,3.2,3.2,0,0,0-.14.83,2.09,2.09,0,0,0,.1.77,1.16,1.16,0,0,0,.38.55A.92.92,0,0,0,109.26,122.4Zm7.4,2.31a2.12,2.12,0,0,1,1.56.37,3.39,3.39,0,0,1,1,1.25,5.13,5.13,0,0,1,.26,3.52,3.53,3.53,0,0,1-.85,1.48,2.51,2.51,0,0,1-1.57.75,2.67,2.67,0,0,1-1.84-.31,2.83,2.83,0,0,1-1.12-1.23,4.21,4.21,0,0,1-.42-1.75A4.64,4.64,0,0,1,114,127a4,4,0,0,1,1-1.5A2.9,2.9,0,0,1,116.66,124.71Zm.17,5.37a1,1,0,0,0,.65-.35,1.71,1.71,0,0,0,.32-.68,2.61,2.61,0,0,0,0-.84,2.43,2.43,0,0,0-.21-.78,1.34,1.34,0,0,0-.43-.55.67.67,0,0,0-.58-.13.83.83,0,0,0-.47.34,2.17,2.17,0,0,0-.34.68,3.61,3.61,0,0,0-.14.81,2.16,2.16,0,0,0,.08.78,1.11,1.11,0,0,0,.37.56A.92.92,0,0,0,116.83,130.08Z" transform="translate(-1 -0.48)"/><path class="cls-7" d="M125.41,123.45a1.29,1.29,0,0,1,.43-.87,1.07,1.07,0,0,1,.72-.25,1,1,0,0,1,.68.36,1.39,1.39,0,0,1,.32.92v.4a9.2,9.2,0,0,1,.72-.87,5.21,5.21,0,0,1,.86-.77,3.32,3.32,0,0,1,1-.49,2.59,2.59,0,0,1,1.21,0,2,2,0,0,1,1.07.56,2.61,2.61,0,0,1,.61,1,5.07,5.07,0,0,1,.23,1.33,10.17,10.17,0,0,1,0,1.46c0,.48-.07,1-.13,1.42s-.11.88-.15,1.24a6.25,6.25,0,0,0-.06.88c0,.22.07.34.17.35a1,1,0,0,0,.59-.14,2.29,2.29,0,0,0,.64-.59,5.38,5.38,0,0,0,.63-1,7.83,7.83,0,0,0,.53-1.47c.06-.26.19-.4.39-.43a.92.92,0,0,1,.58.11,1.27,1.27,0,0,1,.49.46.72.72,0,0,1,.09.63,13.44,13.44,0,0,1-.8,1.93,7.74,7.74,0,0,1-1,1.52,4,4,0,0,1-1.22.95,2.12,2.12,0,0,1-1.38.17,2,2,0,0,1-1.12-.55,2.39,2.39,0,0,1-.55-1,4.52,4.52,0,0,1-.14-1.25,13.25,13.25,0,0,1,.11-1.38c.06-.47.12-.93.2-1.38a9.32,9.32,0,0,0,.12-1.21,3.08,3.08,0,0,0-.09-.91.63.63,0,0,0-.47-.46,1.09,1.09,0,0,0-.94.2,3.31,3.31,0,0,0-.84,1,9.07,9.07,0,0,0-.71,1.43,16.36,16.36,0,0,0-.56,1.67,15.44,15.44,0,0,0-.37,1.65,10.16,10.16,0,0,0-.15,1.36.74.74,0,0,1-.37.45,1.52,1.52,0,0,1-.66.22,1.14,1.14,0,0,1-.7-.14.91.91,0,0,1-.42-.69,4.79,4.79,0,0,1,0-.75c0-.28.06-.7.11-1.24s.1-1.28.16-2.2S125.35,124.93,125.41,123.45Z" transform="translate(-1 -0.48)"/><path class="cls-7" d="M138.18,131.88a2.4,2.4,0,0,1-1.74-.61,3.3,3.3,0,0,1-.9-1.58,6.21,6.21,0,0,1-.15-2.14,9.26,9.26,0,0,1,.5-2.31,9.17,9.17,0,0,1,1-2.08,4.81,4.81,0,0,1,1.48-1.47,3,3,0,0,1,1.81-.43,3.64,3.64,0,0,1,2,1,.59.59,0,0,1,.47-.39,1.38,1.38,0,0,1,.72.08,1.28,1.28,0,0,1,.58.45.79.79,0,0,1,.09.77c-.08.33-.19.75-.32,1.23s-.26,1-.39,1.53-.23,1.06-.33,1.6A7.74,7.74,0,0,0,143,129a2.93,2.93,0,0,0,.19,1.07.7.7,0,0,0,.63.46,1.38,1.38,0,0,0,1-.37,4.12,4.12,0,0,0,.85-1,6.75,6.75,0,0,0,.62-1.3,6.24,6.24,0,0,0,.33-1.19c.08-.32.22-.5.42-.55a.74.74,0,0,1,.58.06,1.06,1.06,0,0,1,.45.44.59.59,0,0,1,0,.57,8.18,8.18,0,0,1-.51,1.65,8.5,8.5,0,0,1-1,1.77A6.43,6.43,0,0,1,145.3,132a2.47,2.47,0,0,1-2.38.45,2.56,2.56,0,0,1-.77-.43,2.8,2.8,0,0,1-.66-.74,2.94,2.94,0,0,1-.42-1.1c-.11.13-.26.3-.45.49a4.77,4.77,0,0,1-.67.57,4.46,4.46,0,0,1-.83.47A2.18,2.18,0,0,1,138.18,131.88Zm0-2.26a1.39,1.39,0,0,0,1-.27,3,3,0,0,0,.79-.87,6.17,6.17,0,0,0,.58-1.24c.15-.46.28-.9.39-1.33s.18-.82.24-1.17.1-.61.13-.77a1.89,1.89,0,0,0-1.09-.51,1.48,1.48,0,0,0-.93.28,2.81,2.81,0,0,0-.75.84,6.47,6.47,0,0,0-.55,1.19,7.18,7.18,0,0,0-.33,1.31,6,6,0,0,0-.1,1.22,2.43,2.43,0,0,0,.16.93A.55.55,0,0,0,138.16,129.62Z" transform="translate(-1 -0.48)"/><path class="cls-7" d="M145.86,122.63a.71.71,0,0,1-.58-.36,1.16,1.16,0,0,1-.16-.66,1.39,1.39,0,0,1,.21-.67.78.78,0,0,1,.53-.39,3.81,3.81,0,0,1,.68,0,2.63,2.63,0,0,0,.69,0l.63-3.5a.81.81,0,0,1,.44-.52,1.28,1.28,0,0,1,.71-.16,1.06,1.06,0,0,1,.64.27.86.86,0,0,1,.22.77l-.52,3.14H152a.71.71,0,0,1,.53.31,1.13,1.13,0,0,1,.21.62,1.33,1.33,0,0,1-.14.67.92.92,0,0,1-.51.48h-3c0,.25-.08.62-.17,1.09s-.17,1-.25,1.53-.15,1.12-.2,1.69a10.3,10.3,0,0,0,0,1.56,3.23,3.23,0,0,0,.29,1.16.83.83,0,0,0,.74.47,3.5,3.5,0,0,0,1-.12,2.84,2.84,0,0,0,1-.48,3.29,3.29,0,0,0,.85-.92,3.69,3.69,0,0,0,.54-1.48.68.68,0,0,1,.37-.59.94.94,0,0,1,.64-.08,1.16,1.16,0,0,1,.57.32.59.59,0,0,1,.18.57,8.53,8.53,0,0,1-.68,1.94,5.5,5.5,0,0,1-1.12,1.51,4.72,4.72,0,0,1-1.62,1,6,6,0,0,1-2.17.35,2.6,2.6,0,0,1-1.49-.38,2.44,2.44,0,0,1-.86-1.08,5,5,0,0,1-.38-1.61,12.83,12.83,0,0,1,0-2c0-.71.11-1.44.22-2.2s.21-1.51.33-2.26a3.53,3.53,0,0,1-.46,0Z" transform="translate(-1 -0.48)"/><path class="cls-7" d="M153.7,122.07a1.44,1.44,0,0,1,.6-.62,1,1,0,0,1,.69-.09,1,1,0,0,1,.57.4,1.35,1.35,0,0,1,.23.84c0,.14-.1.43-.19.86s-.21.94-.32,1.5-.23,1.17-.33,1.8-.18,1.21-.22,1.74a5.74,5.74,0,0,0,0,1.34c.05.36.17.56.37.6a1,1,0,0,0,1-.4,5.22,5.22,0,0,0,.83-1.29,12.52,12.52,0,0,0,.69-1.8c.2-.66.38-1.3.53-1.91s.28-1.14.37-1.61.17-.79.22-.94a2.42,2.42,0,0,1,.33-.74,1.45,1.45,0,0,1,.64-.47,1.18,1.18,0,0,1,1,.26,1.33,1.33,0,0,1,.37,1c-.1.47-.2,1-.32,1.5s-.24,1-.35,1.58-.2,1-.27,1.51a11.78,11.78,0,0,0-.13,1.31,4.2,4.2,0,0,0,.05,1,.62.62,0,0,0,.33.5,1,1,0,0,0,1-.59,10.07,10.07,0,0,0,1-2.24.75.75,0,0,1,.48-.49.85.85,0,0,1,.61.05.9.9,0,0,1,.43.47,1.11,1.11,0,0,1,0,.84c-.07.2-.16.44-.27.71s-.23.55-.38.84-.32.58-.5.87a5.17,5.17,0,0,1-.58.77,2.6,2.6,0,0,1-1,.77,2.12,2.12,0,0,1-1.1.15,1.94,1.94,0,0,1-1-.45,2.68,2.68,0,0,1-.8-1.06,8.47,8.47,0,0,1-.66.86,3.7,3.7,0,0,1-.74.69,2.88,2.88,0,0,1-.9.43,3.84,3.84,0,0,1-1.17.1,1.91,1.91,0,0,1-1.07-.37,2.09,2.09,0,0,1-.66-.83,3.79,3.79,0,0,1-.33-1.11,8.25,8.25,0,0,1-.09-1.22c0-.41,0-.8.05-1.16s.06-.68.08-.93.09-.71.17-1.14.16-.88.25-1.33.19-.89.28-1.32S153.64,122.4,153.7,122.07Z" transform="translate(-1 -0.48)"/><path class="cls-7" d="M162.64,132a.63.63,0,0,1-.51.34,1.34,1.34,0,0,1-.65-.11,1.58,1.58,0,0,1-.54-.37.42.42,0,0,1-.12-.45l.32-.8a14.17,14.17,0,0,0,.49-1.41q.28-.93.66-2.46t.84-3.9a1.16,1.16,0,0,1,.41-.83,1,1,0,0,1,.73-.21,1.21,1.21,0,0,1,.45.12.93.93,0,0,1,.37.28,1.33,1.33,0,0,1,.23.46,1.41,1.41,0,0,1,0,.58,4.29,4.29,0,0,0,.64.64,3.28,3.28,0,0,0,.67.45,5.11,5.11,0,0,0,.75.31c.28.09.59.19.94.28a1.38,1.38,0,0,1,.47.47.94.94,0,0,1,.07.5,2.84,2.84,0,0,1-.16.56,5.32,5.32,0,0,0-.24.64c0,.13-.08.33-.13.58s-.08.53-.11.84-.05.62-.07.95a6.34,6.34,0,0,0,0,.89,2.49,2.49,0,0,0,.17.69.48.48,0,0,0,.36.31c.51.1,1-.2,1.43-.9a12.52,12.52,0,0,0,1.28-3.43.77.77,0,0,1,.39-.58,1,1,0,0,1,.62-.09,1.07,1.07,0,0,1,.54.27.52.52,0,0,1,.15.53c-.07.44-.18.93-.32,1.48a12.36,12.36,0,0,1-.57,1.61,9.7,9.7,0,0,1-.84,1.52,4.54,4.54,0,0,1-1.14,1.17,2.66,2.66,0,0,1-1.06.44,2.5,2.5,0,0,1-2.09-.6,2.14,2.14,0,0,1-.64-1,6.73,6.73,0,0,1-.35-2.56,13.86,13.86,0,0,1,.4-2.61l-.92-.39a3.57,3.57,0,0,1-.87-.47c-.42,1.32-.75,2.37-1,3.16s-.44,1.39-.58,1.82-.25.74-.32.91A1.56,1.56,0,0,1,162.64,132Z" transform="translate(-1 -0.48)"/><path class="cls-7" d="M177.53,123.54a6.85,6.85,0,0,1-.33,1.81,5.17,5.17,0,0,1-.85,1.65,4.26,4.26,0,0,1-1.36,1.17,3.28,3.28,0,0,1-1.83.37,6.38,6.38,0,0,0,.12,1.08,2.61,2.61,0,0,0,.36.9,1.28,1.28,0,0,0,.65.52,1.66,1.66,0,0,0,1.05,0,3.8,3.8,0,0,0,1.21-.6,5.59,5.59,0,0,0,1-1,6.07,6.07,0,0,0,.78-1.14,5.7,5.7,0,0,0,.46-1.19.48.48,0,0,1,.34-.38,1.11,1.11,0,0,1,.57,0,1.14,1.14,0,0,1,.51.32.51.51,0,0,1,.13.51q-.39,1-.78,1.86a8.57,8.57,0,0,1-.86,1.44,5,5,0,0,1-2.44,1.78,5.19,5.19,0,0,1-2,.33,3.12,3.12,0,0,1-1.57-.48,2.89,2.89,0,0,1-1.06-1.22,5,5,0,0,1-.44-1.94c0-.36,0-.79,0-1.31s0-1,.1-1.6a15.28,15.28,0,0,1,.29-1.71,8.11,8.11,0,0,1,.54-1.62,5.27,5.27,0,0,1,.86-1.32,2.91,2.91,0,0,1,1.26-.82,2.84,2.84,0,0,1,1.21-.16,2,2,0,0,1,1,.38,2.18,2.18,0,0,1,.74.91A3.29,3.29,0,0,1,177.53,123.54Zm-2.28-.47a.44.44,0,0,0-.49,0,1.41,1.41,0,0,0-.47.45,3.28,3.28,0,0,0-.37.75,9.18,9.18,0,0,0-.28.89c-.07.31-.12.6-.16.88a3.17,3.17,0,0,0,0,.67,2.34,2.34,0,0,0,1.32-.69,2.94,2.94,0,0,0,.68-1.12,2.62,2.62,0,0,0,.13-1.12A.87.87,0,0,0,175.25,123.07Z" transform="translate(-1 -0.48)"/><path class="cls-7" d="M184,116.54a1.37,1.37,0,0,1,1,.88,4,4,0,0,1,.2,1.72,10.6,10.6,0,0,1-.45,2.26,19.92,19.92,0,0,1-1,2.56,26.94,26.94,0,0,1-1.39,2.58,24,24,0,0,1-1.62,2.34,1.79,1.79,0,0,0,.45,1,1,1,0,0,0,.71.32,1.72,1.72,0,0,0,.86-.17,4,4,0,0,0,.9-.56,6.56,6.56,0,0,0,1.08-1.09,5.82,5.82,0,0,0,.77-1.24q0-.19.33-.27a1.3,1.3,0,0,1,.59,0,1.38,1.38,0,0,1,.54.27.64.64,0,0,1,.2.57,8.92,8.92,0,0,1-1,1.78,7.28,7.28,0,0,1-1.25,1.38,5.4,5.4,0,0,1-2.17,1.21,3.13,3.13,0,0,1-1.92,0,3.2,3.2,0,0,1-1.39-1,5.26,5.26,0,0,1-.85-1.78,8.81,8.81,0,0,1-.29-2.29c0-.49,0-1,.05-1.56s.08-1.1.15-1.66.17-1.12.27-1.67a13.55,13.55,0,0,1,.42-1.61,10.43,10.43,0,0,1,.74-1.8,5,5,0,0,1,1-1.36,3.1,3.1,0,0,1,3-.73Zm-1.18,2.08a.6.6,0,0,0-.45.24,3.33,3.33,0,0,0-.46.68,8.41,8.41,0,0,0-.44,1c-.15.4-.28.8-.4,1.22s-.25.88-.35,1.32-.19.86-.27,1.25-.14.73-.18,1a5.8,5.8,0,0,0-.06.69c.16-.23.34-.5.53-.81s.37-.65.56-1,.37-.73.54-1.11.33-.77.48-1.14.33-.87.46-1.28a7.18,7.18,0,0,0,.27-1.06,2.53,2.53,0,0,0,0-.75C183,118.74,183,118.63,182.8,118.62Z" transform="translate(-1 -0.48)"/><path class="cls-7" d="M190.59,128.43a6.21,6.21,0,0,1,.06-1.82,6.52,6.52,0,0,1,.59-1.76,5.26,5.26,0,0,1,1-1.41,3.55,3.55,0,0,1,1.42-.86,3.38,3.38,0,0,1,1.36-.13,4,4,0,0,1,1.55.54c.07-.26.16-.65.27-1.15s.22-1,.35-1.63.25-1.15.37-1.72.22-1.07.29-1.49a.76.76,0,0,1,.4-.6,1,1,0,0,1,.67-.09,1.19,1.19,0,0,1,.62.34.81.81,0,0,1,.19.73c-.09.57-.2,1.28-.35,2.1s-.3,1.69-.46,2.61-.28,1.83-.4,2.75a24.23,24.23,0,0,0-.21,2.51,8.42,8.42,0,0,0,.13,1.92,1.28,1.28,0,0,0,.58,1,.55.55,0,0,0,.53-.07,2,2,0,0,0,.56-.53,3.45,3.45,0,0,0,.47-.9,4.06,4.06,0,0,0,.23-1.2,1,1,0,0,1,.42-.64.77.77,0,0,1,.57-.07.93.93,0,0,1,.47.35.82.82,0,0,1,.11.64,5.25,5.25,0,0,1-.29,1.38,5.87,5.87,0,0,1-.7,1.45,4.6,4.6,0,0,1-1.08,1.16,2.34,2.34,0,0,1-1.41.47,1.55,1.55,0,0,1-.87-.25,3,3,0,0,1-.7-.59,3.8,3.8,0,0,1-.52-.76,3.66,3.66,0,0,1-.3-.75,4.51,4.51,0,0,1-1,1.05,3.59,3.59,0,0,1-1.2.54,2.88,2.88,0,0,1-1.24,0,2.84,2.84,0,0,1-1.13-.52,3.12,3.12,0,0,1-.88-1A4.14,4.14,0,0,1,190.59,128.43Zm5.71-3.14a2.22,2.22,0,0,0-1-.61,1.7,1.7,0,0,0-1,0,2,2,0,0,0-.7.42,3.28,3.28,0,0,0-.55.71,4.14,4.14,0,0,0-.36.89,3.74,3.74,0,0,0-.11,1,2,2,0,0,0,.52,1.45,1.21,1.21,0,0,0,1,.32,1.8,1.8,0,0,0,.92-.52,2.7,2.7,0,0,0,.67-1.18q.09-.28.18-.63c.07-.23.12-.46.17-.69s.08-.45.11-.66A4,4,0,0,0,196.3,125.29Z" transform="translate(-1 -0.48)"/><path class="cls-7" d="M207,123.54a7.28,7.28,0,0,1-.33,1.81,5.17,5.17,0,0,1-.85,1.65,4.37,4.37,0,0,1-1.36,1.17,3.3,3.3,0,0,1-1.84.37,7.59,7.59,0,0,0,.13,1.08,2.6,2.6,0,0,0,.35.9,1.34,1.34,0,0,0,.66.52,1.66,1.66,0,0,0,1,0,3.8,3.8,0,0,0,1.21-.6,5.93,5.93,0,0,0,1-1,6.07,6.07,0,0,0,.78-1.14,5.7,5.7,0,0,0,.46-1.19.48.48,0,0,1,.34-.38,1.11,1.11,0,0,1,.57,0,1.14,1.14,0,0,1,.51.32.54.54,0,0,1,.13.51c-.26.7-.53,1.32-.78,1.86a8.57,8.57,0,0,1-.86,1.44,5.6,5.6,0,0,1-1.06,1.06,5.29,5.29,0,0,1-1.38.72,5.19,5.19,0,0,1-2,.33,3.09,3.09,0,0,1-1.57-.48,2.89,2.89,0,0,1-1.06-1.22,4.83,4.83,0,0,1-.44-1.94,13,13,0,0,1,0-1.31c0-.51,0-1,.1-1.6a15.28,15.28,0,0,1,.29-1.71,8.11,8.11,0,0,1,.54-1.62,5.27,5.27,0,0,1,.86-1.32,2.91,2.91,0,0,1,1.26-.82,2.82,2.82,0,0,1,1.21-.16,2,2,0,0,1,1.05.38,2.16,2.16,0,0,1,.73.91A3.15,3.15,0,0,1,207,123.54Zm-2.28-.47a.46.46,0,0,0-.5,0,1.49,1.49,0,0,0-.46.45,3.75,3.75,0,0,0-.38.75,9.13,9.13,0,0,0-.27.89c-.07.31-.12.6-.16.88a2.61,2.61,0,0,0,0,.67,2.34,2.34,0,0,0,1.32-.69,2.94,2.94,0,0,0,.68-1.12,2.62,2.62,0,0,0,.13-1.12A.87.87,0,0,0,204.7,123.07Z" transform="translate(-1 -0.48)"/><path class="cls-7" d="M208.21,130.92a1.29,1.29,0,0,1-.81.25.94.94,0,0,1-.6-.25,1,1,0,0,1-.26-.63,1.5,1.5,0,0,1,.22-.85c.31-.5.67-1.07,1.06-1.71s.79-1.3,1.19-2l1.21-2.06c.4-.69.78-1.32,1.13-1.91a1.12,1.12,0,0,1,.54-.49,1.41,1.41,0,0,1,.71-.14,1.08,1.08,0,0,1,.62.26.92.92,0,0,1,.26.71,2.06,2.06,0,0,1-.09.59,1,1,0,0,0,0,.58c.14.48.3,1.07.47,1.75a19.29,19.29,0,0,1,.4,2.16c0,.28.06.6.08.93s0,.68,0,1,0,.66-.07,1a5.64,5.64,0,0,1-.14.84,3.13,3.13,0,0,0,.83-.54,4.72,4.72,0,0,0,.69-.81,10.27,10.27,0,0,0,.64-1.17c.21-.45.43-1,.68-1.6a.79.79,0,0,1,.51-.55,1,1,0,0,1,.65,0,1.26,1.26,0,0,1,.52.42.59.59,0,0,1,.14.53,12.34,12.34,0,0,1-.47,1.28,8.81,8.81,0,0,1-.78,1.43,9.69,9.69,0,0,1-.66.92,6.71,6.71,0,0,1-.75.84,6.12,6.12,0,0,1-.88.66,4.16,4.16,0,0,1-1,.46,4.54,4.54,0,0,1-1.58.32,5.14,5.14,0,0,1-1.56-.2,4.91,4.91,0,0,1-1.62-.8,4.4,4.4,0,0,1-1.2-1.4Zm3.54-5.78-.49.83-.47.84c-.16.28-.32.58-.48.87s-.35.61-.55.93c.06.15.15.34.27.58a4.21,4.21,0,0,0,.47.72,4,4,0,0,0,.57.6,1.6,1.6,0,0,0,.68.36,1.56,1.56,0,0,0,.21-.54,5,5,0,0,0,.1-.73,8.28,8.28,0,0,0,0-.87c0-.31,0-.62,0-.93,0-.52-.09-1-.15-1.49S211.77,125.44,211.75,125.14Z" transform="translate(-1 -0.48)"/><path class="cls-7" d="M222.53,122.23a.72.72,0,0,1,.43-.6,1.4,1.4,0,0,1,.75-.1,1.45,1.45,0,0,1,.7.29.6.6,0,0,1,.27.58l-.18,2.24a3.86,3.86,0,0,1,.7-1.25,5.3,5.3,0,0,1,1.14-1.08,4.25,4.25,0,0,1,1.41-.63,2.36,2.36,0,0,1,1.5.16,2.89,2.89,0,0,1,1.38,1.3,6,6,0,0,1,.66,2,8.5,8.5,0,0,1,0,2.31,8.71,8.71,0,0,1-.52,2.14,7,7,0,0,0,1.52-1.08,10.48,10.48,0,0,0,1.59-2,.32.32,0,0,1,.44-.06.89.89,0,0,1,.31.49,1.84,1.84,0,0,1,.08.76,1.39,1.39,0,0,1-.31.75,6.87,6.87,0,0,1-1.13,1.5,7.9,7.9,0,0,1-1.57,1.23,10.59,10.59,0,0,1-1.86.89,8.78,8.78,0,0,1-2,.46,7.28,7.28,0,0,1-2,0,5.24,5.24,0,0,1-1.78-.62c-.1,1.08-.2,2-.27,2.77s-.13,1.41-.19,1.93l-.12,1.23c0,.3-.06.53-.07.69s0,.27,0,.33a.46.46,0,0,0,0,.1h0c0,.14-.17.26-.41.36a2,2,0,0,1-.75.14,1.57,1.57,0,0,1-.7-.15.47.47,0,0,1-.27-.53c0-.29.08-.75.13-1.37s.11-1.34.17-2.16.13-1.7.2-2.64.15-1.9.22-2.85.14-1.87.2-2.75.11-1.68.16-2.37.09-1.26.13-1.69S222.53,122.27,222.53,122.23Zm6.29,1.79a.89.89,0,0,0-.82-.22,2.18,2.18,0,0,0-.92.49,5.3,5.3,0,0,0-.91,1,9.94,9.94,0,0,0-.78,1.3,8.62,8.62,0,0,0-.52,1.38,3.34,3.34,0,0,0-.13,1.26,1.68,1.68,0,0,0,.62,1.09,1.89,1.89,0,0,0,1.07.37,2.66,2.66,0,0,0,1.19-.25,2.41,2.41,0,0,0,.95-.78,4.25,4.25,0,0,0,.51-1.21,8.9,8.9,0,0,0,.3-1.65,6.83,6.83,0,0,0,0-1.64A1.9,1.9,0,0,0,228.82,124Z" transform="translate(-1 -0.48)"/><path class="cls-7" d="M236.57,131.88a2.38,2.38,0,0,1-1.74-.61,3.3,3.3,0,0,1-.9-1.58,6.21,6.21,0,0,1-.15-2.14,9.25,9.25,0,0,1,.49-2.31,9.63,9.63,0,0,1,1-2.08,4.81,4.81,0,0,1,1.48-1.47,3,3,0,0,1,1.81-.43,3.64,3.64,0,0,1,2.05,1,.58.58,0,0,1,.47-.39,1.33,1.33,0,0,1,.71.08,1.25,1.25,0,0,1,.59.45.79.79,0,0,1,.09.77c-.08.33-.19.75-.32,1.23s-.26,1-.39,1.53-.24,1.06-.33,1.6a7.74,7.74,0,0,0-.12,1.44,2.73,2.73,0,0,0,.19,1.07.7.7,0,0,0,.63.46,1.38,1.38,0,0,0,1-.37,4.12,4.12,0,0,0,.85-1,7.39,7.39,0,0,0,.62-1.3,6.24,6.24,0,0,0,.33-1.19c.08-.32.22-.5.42-.55a.74.74,0,0,1,.58.06,1.06,1.06,0,0,1,.45.44.59.59,0,0,1,.05.57,8.88,8.88,0,0,1-.51,1.65,8.5,8.5,0,0,1-1,1.77,6.43,6.43,0,0,1-1.32,1.42,2.54,2.54,0,0,1-1.59.58,2.47,2.47,0,0,1-.79-.13,2.74,2.74,0,0,1-.78-.43,3.05,3.05,0,0,1-1.07-1.84c-.11.13-.26.3-.45.49a4.77,4.77,0,0,1-.67.57,4.46,4.46,0,0,1-.83.47A2.21,2.21,0,0,1,236.57,131.88Zm0-2.26a1.39,1.39,0,0,0,1-.27,3,3,0,0,0,.79-.87,6.17,6.17,0,0,0,.58-1.24c.15-.46.28-.9.38-1.33s.19-.82.25-1.17.1-.61.12-.77a1.84,1.84,0,0,0-1.08-.51,1.48,1.48,0,0,0-.93.28,2.81,2.81,0,0,0-.75.84,6.47,6.47,0,0,0-.55,1.19,8.12,8.12,0,0,0-.34,1.31,6.68,6.68,0,0,0-.09,1.22,2.43,2.43,0,0,0,.16.93A.55.55,0,0,0,236.55,129.62Z" transform="translate(-1 -0.48)"/><path class="cls-7" d="M245.08,132a.63.63,0,0,1-.52.34,1.34,1.34,0,0,1-.65-.11,1.45,1.45,0,0,1-.53-.37.42.42,0,0,1-.13-.45c.09-.21.2-.47.33-.8s.29-.79.49-1.41.41-1.44.66-2.46.52-2.32.84-3.9a1.16,1.16,0,0,1,.4-.83,1,1,0,0,1,.73-.21,1.25,1.25,0,0,1,.46.12,1.1,1.1,0,0,1,.37.28,1.31,1.31,0,0,1,.22.46,1.14,1.14,0,0,1,0,.58,4.82,4.82,0,0,0,.64.64,3.57,3.57,0,0,0,.67.45,5.75,5.75,0,0,0,.76.31c.27.09.58.19.93.28a1.3,1.3,0,0,1,.47.47.85.85,0,0,1,.07.5,2.29,2.29,0,0,1-.16.56c-.08.2-.16.41-.23.64s-.08.33-.13.58a8.47,8.47,0,0,0-.12.84c0,.31-.05.62-.06.95a5.12,5.12,0,0,0,0,.89,2.18,2.18,0,0,0,.17.69.45.45,0,0,0,.36.31c.5.1,1-.2,1.43-.9a12.86,12.86,0,0,0,1.28-3.43.77.77,0,0,1,.39-.58.93.93,0,0,1,.61-.09,1.07,1.07,0,0,1,.54.27.55.55,0,0,1,.16.53c-.08.44-.18.93-.33,1.48a10,10,0,0,1-.57,1.61,8.3,8.3,0,0,1-.84,1.52,4.24,4.24,0,0,1-1.14,1.17,2.56,2.56,0,0,1-1.05.44,2.44,2.44,0,0,1-1.11-.06,2.47,2.47,0,0,1-1-.54,2.22,2.22,0,0,1-.64-1,6.72,6.72,0,0,1-.34-2.56,13.84,13.84,0,0,1,.39-2.61l-.92-.39a3.69,3.69,0,0,1-.86-.47c-.43,1.32-.76,2.37-1,3.16s-.43,1.39-.58,1.82-.25.74-.31.91A2.05,2.05,0,0,1,245.08,132Z" transform="translate(-1 -0.48)"/><path class="cls-7" d="M260,123.54a7.28,7.28,0,0,1-.33,1.81,5.38,5.38,0,0,1-.85,1.65,4.37,4.37,0,0,1-1.36,1.17,3.3,3.3,0,0,1-1.84.37,7.59,7.59,0,0,0,.13,1.08,2.6,2.6,0,0,0,.35.9,1.26,1.26,0,0,0,.66.52,1.66,1.66,0,0,0,1,0,3.91,3.91,0,0,0,1.21-.6,5.93,5.93,0,0,0,1-1,6.58,6.58,0,0,0,.78-1.14,5.7,5.7,0,0,0,.46-1.19.46.46,0,0,1,.34-.38,1.11,1.11,0,0,1,.57,0,1.06,1.06,0,0,1,.5.32.52.52,0,0,1,.14.51c-.27.7-.53,1.32-.79,1.86a8.55,8.55,0,0,1-.85,1.44,5.6,5.6,0,0,1-1.06,1.06,5.29,5.29,0,0,1-1.38.72,5.19,5.19,0,0,1-2,.33,3.09,3.09,0,0,1-1.57-.48,2.89,2.89,0,0,1-1.06-1.22,4.83,4.83,0,0,1-.44-1.94,13,13,0,0,1,0-1.31,15.09,15.09,0,0,1,.1-1.6,13.29,13.29,0,0,1,.29-1.71,8.11,8.11,0,0,1,.54-1.62,5,5,0,0,1,.86-1.32,2.94,2.94,0,0,1,1.25-.82,2.86,2.86,0,0,1,1.21-.16,2.06,2.06,0,0,1,1.06.38,2.16,2.16,0,0,1,.73.91A3.28,3.28,0,0,1,260,123.54Zm-2.28-.47a.46.46,0,0,0-.5,0,1.49,1.49,0,0,0-.46.45,3.75,3.75,0,0,0-.38.75,7,7,0,0,0-.27.89,7.84,7.84,0,0,0-.16.88,2.61,2.61,0,0,0,0,.67,2.41,2.41,0,0,0,1.32-.69,3.07,3.07,0,0,0,.68-1.12,2.61,2.61,0,0,0,.12-1.12A.83.83,0,0,0,257.69,123.07Z" transform="translate(-1 -0.48)"/><path class="cls-7" d="M261.18,123.45a1.29,1.29,0,0,1,.43-.87,1.07,1.07,0,0,1,.72-.25,1,1,0,0,1,.68.36,1.39,1.39,0,0,1,.32.92v.4a9.2,9.2,0,0,1,.72-.87,5.21,5.21,0,0,1,.86-.77,3.21,3.21,0,0,1,1-.49,2.59,2.59,0,0,1,1.21,0,2,2,0,0,1,1.07.56,2.74,2.74,0,0,1,.61,1,5.07,5.07,0,0,1,.23,1.33,11.87,11.87,0,0,1,0,1.46c0,.48-.07,1-.13,1.42s-.11.88-.16,1.24a6,6,0,0,0-.05.88c0,.22.06.34.17.35a1,1,0,0,0,.59-.14,2.44,2.44,0,0,0,.64-.59,5.38,5.38,0,0,0,.63-1,7.83,7.83,0,0,0,.53-1.47c.06-.26.19-.4.39-.43a.93.93,0,0,1,.58.11,1.27,1.27,0,0,1,.49.46.72.72,0,0,1,.09.63,14.69,14.69,0,0,1-.8,1.93,7.74,7.74,0,0,1-1,1.52,4,4,0,0,1-1.22.95,2.14,2.14,0,0,1-1.39.17,2,2,0,0,1-1.11-.55,2.28,2.28,0,0,1-.55-1,4.17,4.17,0,0,1-.14-1.25,13.25,13.25,0,0,1,.11-1.38c.06-.47.12-.93.2-1.38a9.32,9.32,0,0,0,.12-1.21,3.08,3.08,0,0,0-.09-.91.63.63,0,0,0-.47-.46,1.09,1.09,0,0,0-.94.2,3.31,3.31,0,0,0-.84,1,8.28,8.28,0,0,0-.71,1.43,14.23,14.23,0,0,0-.56,1.67A15.44,15.44,0,0,0,263,130a12.48,12.48,0,0,0-.16,1.36.69.69,0,0,1-.36.45,1.52,1.52,0,0,1-.67.22,1.12,1.12,0,0,1-.69-.14.94.94,0,0,1-.43-.69,6.7,6.7,0,0,1,0-.75c0-.28.06-.7.11-1.24s.1-1.28.15-2.2S261.12,124.93,261.18,123.45Z" transform="translate(-1 -0.48)"/><path class="cls-7" d="M270.64,122.63a.73.73,0,0,1-.58-.36,1.16,1.16,0,0,1-.16-.66,1.39,1.39,0,0,1,.21-.67.8.8,0,0,1,.53-.39,3.93,3.93,0,0,1,.69,0,2.63,2.63,0,0,0,.69,0l.63-3.5a.79.79,0,0,1,.43-.52,1.3,1.3,0,0,1,.71-.16,1.09,1.09,0,0,1,.65.27.86.86,0,0,1,.21.77l-.52,3.14h2.66a.75.75,0,0,1,.53.31,1.31,1.31,0,0,1,.21.62,1.34,1.34,0,0,1-.15.67.94.94,0,0,1-.5.48h-3c0,.25-.08.62-.16,1.09s-.17,1-.26,1.53-.15,1.12-.19,1.69a9.14,9.14,0,0,0,0,1.56,2.86,2.86,0,0,0,.29,1.16.8.8,0,0,0,.74.47,3.43,3.43,0,0,0,1-.12,3,3,0,0,0,1-.48,3.62,3.62,0,0,0,.85-.92,4,4,0,0,0,.54-1.48.65.65,0,0,1,.36-.59.94.94,0,0,1,.64-.08,1.19,1.19,0,0,1,.58.32.58.58,0,0,1,.17.57,8.07,8.07,0,0,1-.68,1.94,5.3,5.3,0,0,1-1.12,1.51,4.77,4.77,0,0,1-1.61,1,6.06,6.06,0,0,1-2.17.35,2.57,2.57,0,0,1-1.49-.38,2.46,2.46,0,0,1-.87-1.08,5,5,0,0,1-.38-1.61,14.23,14.23,0,0,1,0-2c0-.71.12-1.44.22-2.2s.21-1.51.33-2.26a3.52,3.52,0,0,1-.46,0Z" transform="translate(-1 -0.48)"/><path class="cls-7" d="M277.36,130.92a1.27,1.27,0,0,1-.8.25.92.92,0,0,1-.6-.25,1,1,0,0,1-.26-.63,1.5,1.5,0,0,1,.22-.85l1.05-1.71c.4-.64.79-1.3,1.2-2l1.21-2.06c.4-.69.78-1.32,1.13-1.91a1.12,1.12,0,0,1,.54-.49,1.41,1.41,0,0,1,.71-.14,1.08,1.08,0,0,1,.62.26.92.92,0,0,1,.26.71,2.06,2.06,0,0,1-.09.59,1,1,0,0,0,0,.58c.14.48.3,1.07.47,1.75a19.29,19.29,0,0,1,.4,2.16c0,.28.06.6.08.93s0,.68,0,1a7.93,7.93,0,0,1-.06,1,5.64,5.64,0,0,1-.14.84,3.13,3.13,0,0,0,.83-.54,4.72,4.72,0,0,0,.69-.81,12.11,12.11,0,0,0,.64-1.17c.21-.45.43-1,.67-1.6a.8.8,0,0,1,.52-.55,1,1,0,0,1,.65,0,1.33,1.33,0,0,1,.52.42.59.59,0,0,1,.14.53,12.34,12.34,0,0,1-.47,1.28,11.24,11.24,0,0,1-1.44,2.35,6.78,6.78,0,0,1-.76.84,5.54,5.54,0,0,1-.87.66,4.36,4.36,0,0,1-1,.46,4.59,4.59,0,0,1-1.58.32,5.06,5.06,0,0,1-1.56-.2,4.91,4.91,0,0,1-1.62-.8,4.4,4.4,0,0,1-1.2-1.4Zm3.54-5.78c-.16.28-.33.56-.48.83s-.32.56-.47.84l-.48.87c-.16.3-.35.61-.55.93.06.15.15.34.27.58a3.69,3.69,0,0,0,.47.72,4,4,0,0,0,.57.6,1.63,1.63,0,0,0,.67.36,1.57,1.57,0,0,0,.22-.54,5,5,0,0,0,.1-.73,8.28,8.28,0,0,0,0-.87q0-.47-.06-.93c0-.52-.08-1-.14-1.49S280.93,125.44,280.9,125.14Z" transform="translate(-1 -0.48)"/></svg>